<svg width="21" height="23" viewBox="0 0 21 23" fill="none" xmlns="http://www.w3.org/2000/svg">
<g clip-path="url(#clip0_5_1171)">
<path d="M14.2293 0C14.9146 0.0403666 15.5998 0.073557 16.2851 0.124688C16.7608 0.160569 17.051 0.458385 17.025 0.851287C16.9982 1.24957 16.6793 1.50881 16.1982 1.46755C14.1621 1.29353 12.1349 1.32672 10.1454 1.82995C5.8438 2.91716 2.85903 5.4486 1.69092 9.83241C0.993994 12.4482 1.29677 15.0011 2.59298 17.3935C3.73242 19.4953 5.48728 20.8023 7.83514 21.3073C9.5031 21.6661 11.1746 21.7944 12.8551 21.4365C15.4368 20.8857 17.3368 19.402 18.4511 17.0284C20.2284 13.2411 20.051 9.46911 18.0848 5.78857C17.799 5.25394 17.3959 4.77851 17.0161 4.30039C16.639 3.82586 16.5924 3.45987 16.9319 3.16474C17.266 2.875 17.6378 2.95394 18.0427 3.41412C19.3971 4.95343 20.2275 6.75647 20.6503 8.74879C21.2971 11.7951 21.0794 14.767 19.6918 17.5819C17.9997 21.014 15.169 22.7766 11.3816 22.9767C9.36336 23.0834 7.36933 22.8341 5.52669 21.9523C2.45592 20.4829 0.782587 17.9183 0.203011 14.6441C-0.962411 8.06256 2.971 2.22555 9.61418 0.567824C11.129 0.190172 12.667 0.0170437 14.2293 0Z" fill="#EDEDED"/>
<path d="M6.54657 14.9923C6.26708 15.0075 6.04582 15.0291 5.82546 15.0291C5.42683 15.03 5.14824 14.7904 5.1142 14.4325C5.08016 14.0737 5.3068 13.7669 5.6902 13.6988C5.98312 13.6467 6.28231 13.6144 6.57972 13.6091C6.85383 13.6046 6.95595 13.4844 7.02313 13.2251C7.4549 11.5486 7.9019 9.87559 8.35517 8.20441C8.41161 7.9945 8.49133 7.75948 8.63734 7.61237C9.0082 7.23651 9.5833 7.46166 9.76246 8.04205C10.1924 9.43963 10.6117 10.8408 11.0372 12.2411C11.1241 12.5263 11.2145 12.8098 11.3131 13.1238C11.7914 13.1273 12.3674 13.0036 12.4713 13.6988C12.5484 14.2083 12.1811 14.3984 11.7305 14.5106C11.9948 15.3834 12.2581 16.2356 12.5081 17.0922C12.6397 17.5435 12.4516 17.9094 12.0584 18.0189C11.6884 18.122 11.3561 17.9184 11.2181 17.478C10.9673 16.6805 10.7057 15.8857 10.4997 15.0766C10.3994 14.6819 10.2157 14.5913 9.84487 14.6478C9.32889 14.725 8.80307 14.7375 8.28978 14.8236C8.14914 14.847 7.96102 15.0102 7.91982 15.1475C7.70035 15.8759 7.52388 16.6168 7.32501 17.3524C7.17989 17.8879 6.85024 18.1202 6.4346 17.9947C6.03239 17.8736 5.88279 17.5318 6.01626 17.0124C6.18288 16.363 6.35756 15.7153 6.54836 14.995L6.54657 14.9923ZM9.93893 13.2843C9.6684 12.3963 9.41579 11.5647 9.16317 10.7332L9.07718 10.7403C8.84606 11.6167 8.61495 12.4931 8.36861 13.4287C8.91952 13.3785 9.38891 13.3346 9.93982 13.2843H9.93893Z" fill="#EDEDED"/>
<path d="M14.7162 7.42217C14.7162 7.91195 14.7225 8.34253 14.7144 8.77311C14.7055 9.24674 14.426 9.54815 14.0238 9.53559C13.6395 9.52393 13.3779 9.23149 13.369 8.77849C13.3591 8.31651 13.3672 7.85454 13.3672 7.34413C13.094 7.32439 12.8458 7.31273 12.5995 7.28851C12.1579 7.24456 11.89 6.95481 11.9169 6.56012C11.9429 6.18695 12.2268 5.94744 12.655 5.94116C12.8754 5.93847 13.0957 5.94116 13.3412 5.94116C13.4344 5.39397 13.1567 4.54807 14.0677 4.57946C14.9778 4.60996 14.6311 5.45318 14.7494 6.03176C14.9993 6.05688 15.2609 6.07931 15.5207 6.1107C15.9417 6.16094 16.1916 6.43633 16.171 6.81846C16.1513 7.19343 15.8646 7.45088 15.4454 7.45536C15.2241 7.45715 15.002 7.43652 14.7162 7.42217Z" fill="#EDEDED"/>
</g>
<defs>
<clipPath id="clip0_5_1171">
<rect width="21" height="23" fill="white"/>
</clipPath>
</defs>
</svg>
