<svg width="28" height="29" viewBox="0 0 28 29" fill="none" xmlns="http://www.w3.org/2000/svg">
<g clip-path="url(#clip0_5_49)">
<path d="M-0.000279489 14.3914C-0.000279489 10.4154 -0.00294654 6.4395 -0.000279489 2.46358C0.00372108 0.76134 0.750494 0.00389198 2.4494 0.0025442C10.1385 -0.00149911 17.8289 -0.00149911 25.518 0.0025442C27.2463 0.0025442 27.9891 0.76134 27.9904 2.51479C27.9931 8.64715 27.9864 14.7795 27.9997 20.9105C27.9997 21.4456 27.8477 21.8378 27.469 22.2165C25.3793 24.2975 23.3257 26.4148 21.2241 28.4837C20.9427 28.7613 20.4613 28.9742 20.0706 28.9756C14.2258 29.0066 8.38092 29.0012 2.53608 28.9945C0.887847 28.9918 0.00505461 28.0739 0.00238756 26.3865C-0.00161301 22.3877 0.00105403 18.3902 0.00105403 14.3914H-0.000279489ZM26.5769 20.703C26.5942 20.5021 26.6089 20.4132 26.6089 20.3242C26.6102 14.328 26.6129 8.33177 26.6089 2.33554C26.6089 1.55113 26.4342 1.40018 25.5767 1.40018C17.8663 1.39884 10.1558 1.39884 2.4454 1.40018C1.50394 1.40018 1.36658 1.54035 1.36658 2.49457C1.36658 10.4222 1.36658 18.3498 1.36658 26.2774C1.36658 27.3354 1.62129 27.5982 2.64943 27.5982C8.11555 27.5982 13.5817 27.5982 19.0478 27.5982H19.7879C19.7879 26.4647 19.8292 25.4323 19.7799 24.4053C19.6279 21.207 20.332 20.552 23.4164 20.6949C24.4525 20.7434 25.494 20.703 26.5755 20.703H26.5769ZM21.1574 26.2989C22.5443 24.8918 23.9471 23.4686 25.3087 22.0871C24.2672 22.0871 23.1004 22.0804 21.9335 22.0898C21.4641 22.0939 21.1694 22.3486 21.1627 22.8298C21.1454 24.0293 21.1574 25.2274 21.1574 26.2989Z" fill="#F2B277"/>
</g>
<defs>
<clipPath id="clip0_5_49">
<rect width="28" height="29" fill="white"/>
</clipPath>
</defs>
</svg>
