<svg width="24" height="24" viewBox="0 0 25 24" fill="none" xmlns="http://www.w3.org/2000/svg">
<path d="M12.5043 22.9991C12.2773 22.7671 12.0815 22.6201 11.9516 22.4279C10.3505 20.0689 8.75924 17.7045 7.16529 15.341C5.69594 13.1617 4.22481 10.9824 2.75545 8.80223C2.39857 8.27268 2.4048 8.1797 2.84267 7.69443C3.94268 6.47593 5.03824 5.2539 6.15339 4.04957C6.32337 3.86626 6.569 3.71218 6.80841 3.6378C8.57501 3.09319 10.3478 2.56364 12.1251 2.0518C12.3645 1.98273 12.6573 1.98273 12.8967 2.0518C14.6883 2.56718 16.4744 3.10293 18.258 3.64842C18.4591 3.70952 18.67 3.82996 18.8115 3.98315C19.9729 5.24504 21.1139 6.52641 22.2744 7.7883C22.5681 8.10797 22.5637 8.37806 22.3269 8.72785C19.2316 13.3034 16.1469 17.8852 13.0525 22.4616C12.9306 22.6414 12.7383 22.7742 12.5052 23L12.5043 22.9991ZM8.69516 8.78541C9.95982 12.7437 11.2147 16.6702 12.4687 20.5967L12.5612 20.579C13.8134 16.6569 15.0656 12.7349 16.3258 8.78541H8.69516ZM3.93467 8.76858C6.24416 12.1921 8.49848 15.5332 10.7528 18.8734C10.7848 18.8566 10.8178 18.8406 10.8498 18.8238C10.6042 18.0552 10.3585 17.2865 10.1129 16.517C9.33327 14.072 8.55543 11.6262 7.77314 9.18124C7.70996 8.98377 7.70195 8.75441 7.3682 8.75973C6.25662 8.77921 5.14504 8.76681 3.93378 8.76681L3.93467 8.76858ZM21.0872 8.76858C19.9667 8.76858 18.9335 8.78895 17.9029 8.75795C17.5104 8.74644 17.3395 8.85713 17.2211 9.2388C16.405 11.8582 15.5622 14.4688 14.7283 17.082C14.5414 17.6673 14.3554 18.2527 14.1694 18.838C14.2014 18.853 14.2326 18.8672 14.2646 18.8823C16.5225 15.5358 18.7795 12.1894 21.0872 8.76858ZM15.985 7.75199C14.8022 6.22356 13.671 4.76065 12.5105 3.26144C11.3455 4.76685 10.2143 6.22887 9.03691 7.75199H15.985ZM13.9923 3.40667L13.9523 3.49345C14.8956 4.71195 15.8399 5.93044 16.8287 7.20738C17.1268 6.27492 17.4018 5.41595 17.691 4.51093C16.4353 4.13635 15.2134 3.77151 13.9923 3.40667ZM11.0616 3.50142L11.0402 3.40313C9.80852 3.77063 8.57768 4.13901 7.32727 4.5127C7.62274 5.43012 7.89685 6.28289 8.1941 7.20561C9.18821 5.92159 10.1245 4.71195 11.0616 3.50142ZM6.48713 5.15383C5.6817 6.04468 4.93323 6.87088 4.15005 7.73782H7.3068C7.03446 6.87885 6.77726 6.0677 6.48713 5.15383ZM18.5365 5.15737C18.2526 6.04733 17.9901 6.87265 17.7133 7.73782H20.8727C20.0806 6.86291 19.3402 6.04468 18.5365 5.15737Z" fill="#616161"/>
</svg>
