<svg width="25" height="25" viewBox="0 0 25 25" fill="none" xmlns="http://www.w3.org/2000/svg">
<path d="M12.5043 23.4991C12.2773 23.2671 12.0815 23.1201 11.9516 22.9279C10.3505 20.5689 8.75924 18.2045 7.16529 15.841C5.69594 13.6617 4.22481 11.4824 2.75545 9.30223C2.39857 8.77268 2.4048 8.6797 2.84267 8.19443C3.94268 6.97593 5.03824 5.7539 6.15339 4.54957C6.32337 4.36626 6.569 4.21218 6.80841 4.1378C8.57501 3.59319 10.3478 3.06364 12.1251 2.5518C12.3645 2.48273 12.6573 2.48273 12.8967 2.5518C14.6883 3.06718 16.4744 3.60293 18.258 4.14842C18.4591 4.20952 18.67 4.32996 18.8115 4.48315C19.9729 5.74504 21.1139 7.02641 22.2744 8.2883C22.5681 8.60797 22.5637 8.87806 22.3269 9.22785C19.2316 13.8034 16.1469 18.3852 13.0525 22.9616C12.9306 23.1414 12.7383 23.2742 12.5052 23.5L12.5043 23.4991ZM8.69516 9.28541C9.95982 13.2437 11.2147 17.1702 12.4687 21.0967L12.5612 21.079C13.8134 17.1569 15.0656 13.2349 16.3258 9.28541H8.69516ZM3.93467 9.26858C6.24416 12.6921 8.49848 16.0332 10.7528 19.3734C10.7848 19.3566 10.8178 19.3406 10.8498 19.3238C10.6042 18.5552 10.3585 17.7865 10.1129 17.017C9.33327 14.572 8.55543 12.1262 7.77314 9.68124C7.70996 9.48377 7.70195 9.25441 7.3682 9.25973C6.25662 9.27921 5.14504 9.26681 3.93378 9.26681L3.93467 9.26858ZM21.0872 9.26858C19.9667 9.26858 18.9335 9.28895 17.9029 9.25795C17.5104 9.24644 17.3395 9.35713 17.2211 9.7388C16.405 12.3582 15.5622 14.9688 14.7283 17.582C14.5414 18.1673 14.3554 18.7527 14.1694 19.338C14.2014 19.353 14.2326 19.3672 14.2646 19.3823C16.5225 16.0358 18.7795 12.6894 21.0872 9.26858ZM15.985 8.25199C14.8022 6.72356 13.671 5.26065 12.5105 3.76144C11.3455 5.26685 10.2143 6.72887 9.03691 8.25199H15.985ZM13.9923 3.90667L13.9523 3.99345C14.8956 5.21195 15.8399 6.43044 16.8287 7.70738C17.1268 6.77492 17.4018 5.91595 17.691 5.01093C16.4353 4.63635 15.2134 4.27151 13.9923 3.90667ZM11.0616 4.00142L11.0402 3.90313C9.80852 4.27063 8.57768 4.63901 7.32727 5.0127C7.62274 5.93012 7.89685 6.78289 8.1941 7.70561C9.18821 6.42159 10.1245 5.21195 11.0616 4.00142ZM6.48713 5.65383C5.6817 6.54468 4.93323 7.37088 4.15005 8.23782H7.3068C7.03446 7.37885 6.77726 6.5677 6.48713 5.65383ZM18.5365 5.65737C18.2526 6.54733 17.9901 7.37265 17.7133 8.23782H20.8727C20.0806 7.36291 19.3402 6.54468 18.5365 5.65737Z" fill="white"/>
</svg>
