<svg width="27" height="14" viewBox="0 0 27 14" fill="none" xmlns="http://www.w3.org/2000/svg">
<g clip-path="url(#clip0_5_777)">
<path d="M14.2169 11.4189C17.5663 8.07268 20.8135 4.82906 24.0859 1.56056C23.3838 1.56056 22.6405 1.56056 21.8973 1.56056C21.0538 1.56056 20.6617 1.30236 20.6754 0.762105C20.688 0.241551 21.0676 0.000976562 21.8825 0.000976562C23.1824 0.000976562 24.4823 0.000976562 25.7823 0.000976562C26.806 0.000976562 26.9989 0.195925 26.9989 1.22252C26.9989 2.57056 27.001 3.91758 26.9979 5.26562C26.9957 5.86291 26.6911 6.2217 26.2029 6.21859C25.7169 6.21652 25.4207 5.85877 25.4175 5.25525C25.4133 4.44435 25.4164 3.63241 25.4164 2.69707C25.2172 2.87647 25.0822 2.98846 24.9578 3.11082C21.6822 6.31503 18.4066 9.52027 15.132 12.7245C14.4414 13.3995 14.1526 13.4016 13.4694 12.7359C11.772 11.0819 10.0736 9.42902 8.38145 7.77092C8.24545 7.63819 8.14846 7.46709 8.00191 7.27007C7.77524 7.48057 7.63713 7.60293 7.50535 7.73255C5.55494 9.64989 3.60453 11.5683 1.65307 13.4846C1.51706 13.6183 1.38423 13.7646 1.22292 13.862C0.864468 14.0787 0.509177 14.0383 0.221359 13.7324C-0.0495894 13.4441 -0.0675121 13.1102 0.159157 12.7836C0.247716 12.6571 0.365795 12.5492 0.477548 12.4393C2.68731 10.2638 4.89813 8.08927 7.11 5.91476C7.76576 5.27081 8.06728 5.27288 8.73464 5.92306C10.4447 7.58841 12.1547 9.25377 13.8595 10.9243C13.9944 11.057 14.0861 11.2323 14.2179 11.4158L14.2169 11.4189Z" fill="white"/>
</g>
<defs>
<clipPath id="clip0_5_777">
<rect width="27" height="14" fill="white"/>
</clipPath>
</defs>
</svg>
