<svg width="8" height="21" viewBox="0 0 8 21" fill="none" xmlns="http://www.w3.org/2000/svg">
<g clip-path="url(#clip0_5_785)">
<path d="M2.60023 9.79715C2.14082 9.79715 1.71643 9.81846 1.29609 9.79288C0.559141 9.74599 0.0229337 9.16617 3.03338e-05 8.42718C-0.0201785 7.72514 0.458097 7.05153 1.15732 7.00321C2.16237 6.935 3.17821 6.92931 4.18191 7.00179C4.95119 7.05721 5.34459 7.67825 5.34594 8.62898C5.34998 11.5167 5.34729 14.4059 5.34863 17.2936C5.34863 17.5494 5.34863 17.8052 5.34863 18.1505C5.79727 18.1505 6.19471 18.1392 6.58945 18.1534C7.40589 18.1832 7.9879 18.7673 7.99868 19.5532C8.00946 20.3376 7.43014 20.9772 6.62448 20.9857C4.8744 21.007 3.12297 21.0056 1.37288 20.9857C0.567225 20.9757 -0.012095 20.3376 -0.00131692 19.5518C0.00946112 18.7659 0.591475 18.1818 1.40791 18.152C1.78784 18.1377 2.16776 18.1491 2.59754 18.1491V9.79715H2.60023Z" fill="white"/>
<path d="M5.67589 1.7679C5.68397 2.74848 4.9578 3.5301 4.0282 3.54431C3.0932 3.55852 2.34682 2.80532 2.32527 1.82759C2.30102 0.827112 3.0676 -0.00424706 4.00664 1.6325e-05C4.92143 0.00427971 5.66915 0.795847 5.67724 1.7679H5.67589Z" fill="white"/>
</g>
<defs>
<clipPath id="clip0_5_785">
<rect width="8" height="21" fill="white"/>
</clipPath>
</defs>
</svg>
