<svg width="22" height="22" viewBox="0 0 22 22" fill="none" xmlns="http://www.w3.org/2000/svg">
<g clip-path="url(#clip0_5_1175)">
<path d="M0.00345209 9.49326C0.00345209 7.30297 0.000874972 5.11182 0.00345209 2.92153C0.00602921 1.17205 1.16487 0.00429637 2.90357 0.00257782C6.92559 -0.000859274 10.9485 -0.000859274 14.9705 0.00257782C16.7109 0.00429637 17.868 1.16861 17.8715 2.91981C17.8758 5.55435 17.8758 8.18888 17.8715 10.8234C17.8689 12.5978 16.7152 13.7484 14.937 13.7501C11.7878 13.7535 8.63852 13.745 5.49014 13.7639C5.23414 13.7656 4.93262 13.8816 4.73246 14.0431C3.58393 14.9677 2.45859 15.9206 1.32809 16.8667C1.05492 17.0953 0.776588 17.2989 0.400328 17.1133C0.0318004 16.932 -0.000843107 16.5995 1.59325e-05 16.2368C0.00602921 13.989 0.00345209 11.7411 0.00345209 9.49326ZM1.37963 15.0021C1.55488 14.8689 1.66655 14.7898 1.7705 14.703C2.56339 14.0448 3.36144 13.3926 4.14316 12.7207C4.43266 12.4724 4.73848 12.3684 5.11903 12.3701C8.36878 12.3796 11.6185 12.3761 14.8683 12.3753C15.979 12.3753 16.4953 11.8563 16.4961 10.7435C16.4979 8.18029 16.497 5.61708 16.4961 3.05386C16.4961 1.88267 15.9945 1.37914 14.8253 1.37914C10.9029 1.37914 6.98057 1.37914 3.0582 1.37914C1.88475 1.37914 1.37963 1.88009 1.37963 3.04613C1.37963 6.8699 1.37963 10.6928 1.37963 14.5166C1.37963 14.6532 1.37963 14.789 1.37963 15.0029V15.0021Z" fill="#616161"/>
<path d="M20.6203 19.8794V19.3544C20.6203 15.76 20.6203 12.1665 20.6203 8.57218C20.6203 7.46458 20.2741 7.05642 19.1839 6.87168C18.7862 6.80465 18.5311 6.49617 18.5654 6.12669C18.5998 5.7572 18.897 5.50973 19.3094 5.50457C20.7294 5.48739 21.9758 6.72388 21.9904 8.20527C22.0085 10.0519 21.9964 11.8993 21.9964 13.7467C21.9964 16.1811 21.9939 18.6154 21.9999 21.0488C22.0007 21.4115 21.9664 21.7423 21.6013 21.9262C21.225 22.1161 20.9467 21.9064 20.6709 21.6856C19.7664 20.9595 18.8695 20.2248 17.9486 19.5211C17.7528 19.3715 17.4684 19.2633 17.2236 19.2624C14.3321 19.2444 11.4397 19.2074 8.54904 19.2684C6.96926 19.3019 5.23143 18.2717 5.5089 15.748C5.54927 15.3768 5.85681 15.107 6.21159 15.1319C6.59043 15.1585 6.81721 15.3768 6.86704 15.7506C6.89367 15.9473 6.87563 16.151 6.87735 16.3512C6.88937 17.3205 7.43057 17.8712 8.3987 17.873C11.2619 17.8781 14.1251 17.9005 16.9874 17.8584C17.7846 17.8463 18.4246 18.0225 19.0044 18.5724C19.4786 19.0227 20.0215 19.4008 20.6203 19.8794Z" fill="#616161"/>
<path d="M8.98051 4.12629C10.2837 4.12629 11.586 4.12457 12.8891 4.12715C13.4278 4.12801 13.7447 4.38751 13.7447 4.81457C13.7447 5.24077 13.4286 5.50113 12.8891 5.50199C10.2545 5.50371 7.62065 5.50371 4.98597 5.50199C4.44736 5.50199 4.13037 5.24163 4.13037 4.81457C4.13037 4.38837 4.4465 4.12887 4.98597 4.12715C6.31749 4.12457 7.649 4.12629 8.98051 4.12629Z" fill="#616161"/>
<path d="M7.5482 8.25168C6.68916 8.25168 5.83013 8.25426 4.97109 8.25082C4.4402 8.24825 4.12064 7.97672 4.13009 7.5488C4.13954 7.13549 4.44707 6.8777 4.95734 6.87685C6.69002 6.87341 8.42185 6.87341 10.1545 6.87685C10.6854 6.8777 11.005 7.15095 10.9955 7.57887C10.9861 7.99218 10.6785 8.24825 10.1683 8.25082C9.29463 8.25512 8.42185 8.25168 7.5482 8.25168Z" fill="#616161"/>
</g>
<defs>
<clipPath id="clip0_5_1175">
<rect width="22" height="22" fill="white"/>
</clipPath>
</defs>
</svg>
