<svg width="28" height="44" viewBox="0 0 28 44" fill="none" xmlns="http://www.w3.org/2000/svg">
<g clip-path="url(#clip0_5_1133)">
<path d="M5.03553 14.7677C5.03553 12.618 4.91701 10.4604 5.05962 8.31945C5.39205 3.32194 9.84175 -0.417394 14.7665 0.037192C19.4157 0.46636 22.9442 4.26533 23.0049 8.99595C23.054 12.791 23.054 16.588 23.0117 20.3831C22.9702 24.1048 21.336 26.9242 18.0821 28.6829C12.5946 31.649 5.55103 27.7933 5.06058 21.5073C4.88618 19.2735 5.03264 17.0143 5.03264 14.7668H5.03457L5.03553 14.7677Z" fill="white"/>
<path d="M13.9773 43.9952C12.3229 43.9952 10.6675 44.0098 9.01304 43.9893C7.89146 43.9756 7.18903 42.9638 7.55903 41.9452C7.77776 41.342 8.31254 40.9715 9.02846 40.9636C10.0248 40.9539 11.0211 40.9499 12.0164 40.9734C12.3893 40.9822 12.5175 40.8747 12.5136 40.4817C12.4934 38.6575 12.4924 36.8323 12.5079 35.0081C12.5108 34.6571 12.3691 34.5701 12.0666 34.533C9.9872 34.2788 8.06779 33.5505 6.34399 32.3607C2.25851 29.5394 0.151209 25.5967 -6.9486e-05 20.5884C-0.0280126 19.6607 0.592518 19.0174 1.46454 18.991C2.31921 18.9646 2.95998 19.5913 2.9831 20.5307C3.06308 23.8126 4.26849 26.5782 6.66293 28.7915C10.4671 32.3079 16.3052 32.611 20.4456 29.5091C23.2361 27.4189 24.7373 24.6044 24.9801 21.0958C25.0187 20.5337 24.957 19.9451 25.3993 19.4847C25.8551 19.0096 26.4949 18.8356 27.073 19.0946C27.6694 19.3615 28.0009 19.8445 27.9999 20.5141C27.998 21.958 27.8063 23.3814 27.3543 24.7481C26.0555 28.681 23.5772 31.5855 19.8704 33.3706C18.6766 33.9454 17.423 34.3658 16.1 34.5027C15.6462 34.5496 15.4737 34.6913 15.4833 35.186C15.5171 36.9281 15.5122 38.6721 15.493 40.4152C15.4881 40.8326 15.5884 40.9891 16.0268 40.9744C17.0221 40.9412 18.0184 40.9421 19.0148 40.9646C20.1277 40.99 20.8089 42.0116 20.4244 43.0401C20.199 43.6452 19.6835 43.9883 18.9415 43.9913C17.2871 43.9991 15.6327 43.9932 13.9773 43.9932V43.9952Z" fill="white"/>
</g>
<defs>
<clipPath id="clip0_5_1133">
<rect width="28" height="44" fill="white"/>
</clipPath>
</defs>
</svg>
