<svg width="24" height="24" viewBox="0 0 24 24" fill="none" xmlns="http://www.w3.org/2000/svg">
<g clip-path="url(#clip0_5_1180)">
<path d="M6.71835 14.182C6.74369 13.9086 6.74463 13.6417 6.7972 13.3852C7.04126 12.2002 8.05038 11.3357 9.26131 11.3206C11.0599 11.299 12.8594 11.2971 14.658 11.3206C16.0763 11.3385 17.1587 12.4492 17.1906 13.8785C17.2066 14.5974 17.1934 15.3181 17.1934 16.0727C18.5649 15.6536 19.942 15.8679 21.304 15.8481C22.8482 15.8265 23.9512 16.91 23.9822 18.4539C24.0141 20.0354 23.9962 21.617 23.9869 23.1985C23.9831 23.8055 23.7653 23.9991 23.1523 23.9991C15.6905 23.9991 8.22779 23.9991 0.765987 23.9991C0.15301 23.9991 0 23.8422 0 23.2191C0 20.9798 0 18.7405 0 16.5012C0 15.1903 0.916181 14.0862 2.23601 13.9903C3.4338 13.9029 4.64286 13.9574 5.84723 13.9791C6.13447 13.9847 6.4189 14.1087 6.71835 14.182ZM15.7628 22.6055C15.7713 22.4317 15.7844 22.2785 15.7844 22.1263C15.7853 19.4801 15.7863 16.8339 15.7844 14.1877C15.7844 13.1512 15.3648 12.7255 14.3435 12.7245C12.7636 12.7227 11.1838 12.7227 9.60394 12.7245C8.57605 12.7255 8.15645 13.1474 8.15551 14.1801C8.15364 16.8263 8.15551 19.4726 8.15551 22.1188C8.15551 22.2719 8.16865 22.4242 8.1771 22.6055H15.7619H15.7628ZM6.73618 22.6036C6.73618 20.5222 6.75496 18.4915 6.72586 16.4617C6.71647 15.803 6.19267 15.3783 5.49427 15.367C4.58841 15.352 3.68256 15.3595 2.7767 15.3632C1.81359 15.367 1.37239 15.803 1.3677 16.7671C1.36113 18.0649 1.36582 19.3626 1.36582 20.6603C1.36582 21.2975 1.36582 21.9346 1.36582 22.6027H6.73712L6.73618 22.6036ZM22.576 22.6065C22.576 22.3734 22.576 22.2014 22.576 22.0295C22.575 20.8398 22.5891 19.6492 22.5666 18.4605C22.5525 17.7228 22.0822 17.2689 21.3435 17.2558C20.3738 17.2379 19.4041 17.2379 18.4344 17.2558C17.6778 17.2699 17.2122 17.7435 17.2009 18.5056C17.185 19.5073 17.1962 20.509 17.1962 21.5117C17.1962 21.8679 17.1962 22.2231 17.1962 22.6074H22.576V22.6065Z" fill="#616161"/>
<path d="M9.34506 9.70155C8.82502 9.69027 8.519 9.30688 8.59503 8.81917C8.71049 8.07681 8.86632 7.34102 8.96019 6.59583C8.9846 6.4032 8.89636 6.13726 8.764 5.99536C8.27399 5.46913 7.74644 4.97673 7.22639 4.47962C6.98045 4.2447 6.79177 3.94024 6.97294 3.65081C7.11562 3.42246 7.41977 3.21854 7.6873 3.1584C8.3566 3.00805 9.04374 2.93193 9.72712 2.85394C10.0425 2.81823 10.2246 2.69043 10.3551 2.39442C10.6067 1.82215 10.9043 1.27054 11.1765 0.707659C11.3417 0.363728 11.5003 0.00570087 11.9584 6.26546e-05C12.4409 -0.00557556 12.6024 0.370305 12.7751 0.728332C13.0473 1.29121 13.3421 1.84376 13.5984 2.41416C13.7223 2.69043 13.8922 2.81635 14.1916 2.85112C14.875 2.92912 15.5612 3.00711 16.2314 3.15464C16.5027 3.21478 16.8191 3.40273 16.9618 3.62919C17.1561 3.93648 16.9571 4.25034 16.698 4.49654C16.1883 4.98237 15.6964 5.48699 15.1801 5.96623C14.9745 6.15699 14.9079 6.34024 14.9651 6.62309C15.1078 7.32786 15.2458 8.03734 15.3171 8.75245C15.3425 9.00899 15.2383 9.3407 15.074 9.53898C14.8468 9.8115 14.5117 9.71659 14.2132 9.5559C13.5937 9.2223 12.9582 8.9169 12.3489 8.56639C12.0673 8.40476 11.8486 8.42168 11.5764 8.57579C10.9775 8.91408 10.3636 9.22418 9.75152 9.53804C9.60133 9.6151 9.43706 9.6649 9.34506 9.70061V9.70155ZM9.18079 4.35652C9.53374 4.72207 9.83601 5.05378 10.1589 5.36388C10.4302 5.62512 10.541 5.90891 10.4574 6.28949C10.3607 6.72833 10.3072 7.17657 10.2228 7.69717C10.6715 7.46318 11.0638 7.27712 11.4374 7.05911C11.7979 6.84861 12.1312 6.8411 12.4944 7.05347C12.869 7.27242 13.2614 7.45942 13.7194 7.6981C13.6331 7.16623 13.5129 6.71048 13.5026 6.25378C13.496 5.97375 13.5955 5.64579 13.7589 5.41933C14.0273 5.04533 14.385 4.7371 14.7436 4.36028C14.3212 4.29544 13.9297 4.20993 13.5336 4.1808C13.0408 4.14509 12.7291 3.91956 12.5423 3.46193C12.3893 3.0898 12.1856 2.73742 11.9678 2.30421C11.736 2.77312 11.5257 3.16874 11.3426 3.57751C11.1774 3.94493 10.9043 4.1216 10.5128 4.16576C10.0838 4.21463 9.65671 4.28793 9.18173 4.3584L9.18079 4.35652Z" fill="#616161"/>
</g>
<defs>
<clipPath id="clip0_5_1180">
<rect width="24" height="24" fill="white"/>
</clipPath>
</defs>
</svg>
