<svg width="34" height="27" viewBox="0 0 34 27" fill="none" xmlns="http://www.w3.org/2000/svg">
<g clip-path="url(#clip0_5_648)">
<path d="M15.4358 13.5224C15.4358 17.5641 15.4358 21.6058 15.4358 25.6475C15.4358 25.8408 15.4451 26.0355 15.4265 26.2276C15.3576 26.9496 14.746 27.2267 14.153 26.791C13.8718 26.5847 13.629 26.3307 13.3717 26.0948C11.1205 24.0282 8.8786 21.9526 6.60883 19.9066C6.36474 19.6861 5.96279 19.5327 5.6285 19.5237C4.12549 19.4824 2.62116 19.5121 1.11683 19.5031C0.235988 19.4979 0.00251172 19.2697 0.00251172 18.4343C-0.00146799 15.1455 -0.000141424 11.8554 0.00251172 8.56666C0.00251172 7.72867 0.238641 7.49403 1.10755 7.48888C2.61188 7.47985 4.11621 7.50822 5.61921 7.46825C5.95351 7.45923 6.35811 7.31097 6.6022 7.0918C8.9688 4.95686 11.3075 2.79227 13.6542 0.636708C13.8148 0.489737 13.9567 0.293777 14.1477 0.212556C14.3905 0.110709 14.7314 -0.00918835 14.9291 0.083635C15.1546 0.189351 15.3814 0.509076 15.408 0.756605C15.477 1.39477 15.4372 2.04453 15.4372 2.68914C15.4372 6.30022 15.4372 9.9126 15.4372 13.5237L15.4358 13.5224ZM1.58378 17.9998C3.13852 17.9998 4.61765 17.965 6.0928 18.0218C6.51067 18.0372 7.00813 18.2229 7.31457 18.4949C9.33626 20.2933 11.3155 22.1382 13.3093 23.9663C13.4712 24.1146 13.6463 24.2499 13.8559 24.4253V2.55119C13.6198 2.75489 13.4539 2.89154 13.2961 3.03593C11.5437 4.64358 9.75148 6.21256 8.05612 7.87564C7.21773 8.69816 6.35811 9.13391 5.14563 9.00886C4.20509 8.91217 3.24598 8.98952 2.29615 8.98952C2.064 8.98952 1.83185 8.98952 1.58378 8.98952V17.9998Z" fill="black"/>
<path d="M34.0001 13.5444C33.8051 18.9101 31.6056 23.3115 27.2186 26.6505C26.8061 26.9651 26.3856 27.1933 25.9279 26.7575C25.5631 26.4107 25.6732 25.9066 26.2171 25.5044C27.7307 24.388 29.0055 23.0626 30.019 21.4988C34.2707 14.9393 32.7345 6.41503 26.4439 1.65654C25.7183 1.10734 25.5538 0.716704 25.8735 0.298999C26.2131 -0.147069 26.6509 -0.105814 27.415 0.491092C31.6945 3.8366 33.8316 8.20446 34.0014 13.5431L34.0001 13.5444Z" fill="black"/>
<path d="M27.8051 13.4787C27.7043 17.1594 26.1376 20.0833 23.0136 22.1989C22.4166 22.6024 21.9404 22.587 21.6896 22.1564C21.3819 21.6265 21.6711 21.2836 22.1142 20.9741C27.6619 17.0988 27.6579 9.90238 22.1075 6.01153C21.6658 5.70212 21.3766 5.3579 21.6989 4.82932C21.9497 4.41935 22.4219 4.39228 22.9738 4.76357C26.1018 6.86757 27.6884 9.78248 27.8038 13.4774L27.8051 13.4787Z" fill="black"/>
<path d="M21.6189 13.6839C21.5778 14.9151 21.0153 16.0767 19.8943 16.9765C19.5057 17.2885 19.0891 17.3891 18.7283 16.983C18.3767 16.5885 18.4696 16.1617 18.8769 15.8601C20.4648 14.6856 20.4515 12.2799 18.8662 11.1183C18.4563 10.8179 18.3807 10.3886 18.7429 9.99801C19.0865 9.62801 19.4791 9.71181 19.8638 9.98899C20.9198 10.7496 21.6229 12.1484 21.6189 13.6839Z" fill="black"/>
</g>
<defs>
<clipPath id="clip0_5_648">
<rect width="34" height="27" fill="white"/>
</clipPath>
</defs>
</svg>
