<svg width="32" height="25" viewBox="0 0 32 25" fill="none" xmlns="http://www.w3.org/2000/svg">
<g clip-path="url(#clip0_5_1155)">
<path d="M27.9603 3.36551C27.4624 2.90982 26.9503 2.46807 26.471 1.99427C25.9218 1.45218 25.8947 0.786074 26.3626 0.327601C26.8319 -0.132265 27.5124 -0.111362 28.073 0.420968C29.2484 1.53719 30.4152 2.66316 31.5678 3.80029C32.1384 4.36328 32.147 4.95553 31.5849 5.51433C30.4038 6.69048 29.2084 7.85268 28.0016 9.00374C27.4681 9.51238 26.8191 9.51656 26.3498 9.07063C25.8634 8.60798 25.879 7.95859 26.4354 7.40675C26.9332 6.91205 27.4696 6.45218 27.9888 5.97699L27.8989 5.73451C27.0744 5.81255 26.2357 5.82649 25.4269 5.98256C23.4569 6.36439 21.8079 7.32872 20.4413 8.76824C17.6797 11.6793 14.8981 14.5709 12.1507 17.4945C9.6772 20.1269 6.63739 21.4382 2.97992 21.3895C2.38651 21.3811 1.79167 21.402 1.19826 21.3825C0.480748 21.3588 -0.00425132 20.8906 2.80934e-05 20.2649C0.0043075 19.6336 0.483601 19.1807 1.2111 19.1612C2.27953 19.1333 3.35509 19.1988 4.41495 19.0999C6.78004 18.8783 8.76141 17.8583 10.3776 16.154C12.8953 13.4979 15.4858 10.9031 17.9265 8.18017C20.5769 5.22309 23.7365 3.4533 27.8547 3.54806L27.9603 3.36411V3.36551Z" fill="#616161"/>
<path d="M27.936 21.4617C26.9917 21.3698 26.0916 21.3405 25.2143 21.1858C22.835 20.765 20.788 19.6933 19.0891 18.0086C18.5556 17.4804 18.0363 16.9383 17.5271 16.3865C16.975 15.7887 16.9808 15.1323 17.5157 14.671C18.0192 14.2376 18.6911 14.2976 19.216 14.8424C19.6725 15.3149 20.0962 15.8165 20.5569 16.2848C22.544 18.3054 24.979 19.2363 28.033 19.1443C27.4696 18.591 27.0131 18.1465 26.5609 17.6978C25.9333 17.0735 25.8634 16.4171 26.3641 15.9308C26.8662 15.4431 27.5309 15.5099 28.1757 16.1287C29.2769 17.185 30.3767 18.2427 31.468 19.3087C32.167 19.9916 32.1712 20.5448 31.4808 21.2248C30.361 22.3285 29.2341 23.4252 28.1015 24.5177C27.4938 25.1044 26.8462 25.1546 26.3455 24.6808C25.842 24.2028 25.8862 23.5618 26.4739 22.9654C26.9347 22.4971 27.404 22.0387 27.869 21.5746C27.8847 21.5593 27.8918 21.5342 27.9303 21.4631L27.936 21.4617Z" fill="#616161"/>
<path d="M2.7631 3.54942C6.61172 3.43654 9.79702 4.80638 12.3433 7.61993C12.6728 7.98503 13.0365 8.32088 13.3575 8.69295C13.8254 9.23225 13.7926 9.87885 13.3019 10.3053C12.8154 10.7275 12.155 10.6871 11.6514 10.1757C11.2249 9.74089 10.8284 9.27684 10.4133 8.8323C8.55457 6.84094 6.24511 5.82227 3.48775 5.78464C2.75169 5.77489 2.01563 5.79161 1.281 5.77907C0.506424 5.76374 0.00430678 5.31781 2.73716e-05 4.66982C-0.00425204 4.01625 0.493586 3.57032 1.26816 3.5522C1.766 3.53966 2.26526 3.54942 2.7631 3.54942Z" fill="#616161"/>
</g>
<defs>
<clipPath id="clip0_5_1155">
<rect width="32" height="25" fill="white"/>
</clipPath>
</defs>
</svg>
