<svg width="27" height="17" viewBox="0 0 27 17" fill="none" xmlns="http://www.w3.org/2000/svg">
<g clip-path="url(#clip0_5_781)">
<path d="M18.5347 12.2636C18.5347 13.0166 18.541 13.6706 18.5336 14.3247C18.5136 15.9412 17.4799 16.993 15.8836 16.9951C11.4728 17.0015 7.06095 17.0015 2.65016 16.9951C1.04959 16.993 0.00432191 15.9348 0.00326821 14.3289C-0.000946585 10.4461 0.000107115 6.56222 0.00326821 2.67833C0.00432191 1.06926 1.04538 0.00788929 2.64173 0.0057623C7.05252 -0.000618683 11.4644 -0.000618683 15.8751 0.0057623C17.4757 0.00788929 18.5126 1.05437 18.5326 2.6677C18.541 3.33557 18.5336 4.00345 18.5336 4.74577C18.8708 4.61389 19.13 4.51499 19.3871 4.41183C21.4745 3.5706 23.5598 2.72725 25.6482 1.88709C26.5417 1.52763 26.998 1.83817 26.9991 2.80382C27.0001 6.59838 27.0001 10.394 26.9991 14.1886C26.9991 15.1595 26.5449 15.4754 25.6577 15.1191C23.4881 14.2481 21.3207 13.3718 19.1522 12.4976C18.9762 12.4263 18.7971 12.3636 18.5357 12.2647L18.5347 12.2636ZM9.25791 15.3988C11.418 15.3988 13.5781 15.3999 15.7371 15.3988C16.6391 15.3988 16.9489 15.0925 16.9499 14.1949C16.952 10.4036 16.952 6.61114 16.9499 2.81978C16.9499 1.90836 16.6475 1.60313 15.7508 1.60207C11.4306 1.60101 7.11153 1.60101 2.79136 1.60207C1.88307 1.60207 1.58593 1.89879 1.58593 2.80489C1.58487 6.59625 1.58593 10.3887 1.58593 14.18C1.58593 15.0957 1.87991 15.3967 2.77766 15.3978C4.93774 15.3999 7.09783 15.3978 9.25686 15.3978L9.25791 15.3988ZM25.3964 13.2867V3.7631C25.3258 3.77054 25.271 3.76522 25.2257 3.7833C23.0888 4.64261 20.9508 5.4966 18.8223 6.37717C18.6854 6.43354 18.5526 6.68771 18.5484 6.85256C18.5231 7.89797 18.5547 8.94552 18.5263 9.99094C18.5147 10.3897 18.6379 10.5822 19.011 10.729C20.9097 11.4713 22.798 12.2445 24.6893 13.0059C24.9138 13.0963 25.1382 13.1846 25.3964 13.2878V13.2867Z" fill="white"/>
</g>
<defs>
<clipPath id="clip0_5_781">
<rect width="27" height="17" fill="white"/>
</clipPath>
</defs>
</svg>
