<svg width="305" height="107" viewBox="0 0 305 107" fill="none" xmlns="http://www.w3.org/2000/svg">
<g clip-path="url(#clip0_3742_448)">
<path d="M98.215 1.60144C99.3392 1.64808 100.796 1.69473 102.569 1.72582C104.343 1.77247 106.1 1.78801 107.873 1.78801C110.09 1.78801 112.196 1.77247 114.191 1.72582C116.186 1.67918 117.595 1.66363 118.403 1.66363C124.467 1.66363 128.995 2.89191 131.972 5.33291C134.933 7.77392 136.421 10.9457 136.421 14.8171C136.421 16.4185 136.12 18.0977 135.534 19.8546C134.949 21.6115 133.919 23.2284 132.479 24.721C131.022 26.2136 129.043 27.4263 126.525 28.3592C124.008 29.2921 120.809 29.7585 116.898 29.7585H110.106V28.4214H116.218C119.068 28.4214 121.253 27.815 122.773 26.6179C124.293 25.4207 125.306 23.8348 125.829 21.8758C126.351 19.9168 126.604 17.8023 126.604 15.5323C126.604 11.3033 125.908 8.14707 124.499 6.04811C123.089 3.96471 120.667 2.90746 117.231 2.90746C115.378 2.90746 114.159 3.2806 113.589 4.04245C113.019 4.80429 112.734 6.32797 112.734 8.6446V41.5127C112.734 43.2074 112.908 44.4667 113.273 45.3219C113.637 46.1614 114.333 46.7212 115.378 46.9855C116.423 47.2498 117.912 47.4053 119.859 47.4519V48.8512C118.545 48.7579 116.851 48.7113 114.761 48.6802C112.671 48.6646 110.518 48.6491 108.301 48.6491C106.401 48.6491 104.564 48.6491 102.791 48.6802C101.018 48.6957 99.4817 48.7579 98.1675 48.8512V47.5141C99.6558 47.4208 100.78 47.2498 101.524 46.9855C102.268 46.7212 102.775 46.177 103.013 45.3841C103.266 44.5756 103.393 43.3784 103.393 41.777V8.67569C103.393 7.02763 103.266 5.8149 103.013 5.03751C102.759 4.26012 102.268 3.73149 101.524 3.43608C100.78 3.14067 99.6558 2.9852 98.1675 2.93855V1.60144H98.215Z" fill="#00B4D8"/>
<path d="M155.991 13.4178C159.981 13.4178 163.101 14.5994 165.365 16.9627C167.629 19.3259 168.769 23.0885 168.769 28.2504H145.858L145.795 26.9754H160.884C160.979 24.7987 160.836 22.7775 160.472 20.9273C160.108 19.0772 159.538 17.6001 158.746 16.4962C157.955 15.3768 156.926 14.8326 155.659 14.8326C153.933 14.8326 152.445 15.8277 151.178 17.8022C149.911 19.7768 149.12 23.0263 148.803 27.5196L149.072 27.9239C148.977 28.4991 148.93 29.121 148.898 29.7896C148.882 30.4582 148.866 31.1267 148.866 31.7953C148.866 34.8737 149.325 37.408 150.228 39.3981C151.13 41.4038 152.318 42.8653 153.759 43.7982C155.216 44.731 156.704 45.1975 158.24 45.1975C159.285 45.1975 160.346 45.042 161.438 44.731C162.531 44.4201 163.591 43.8448 164.636 42.9897C165.681 42.1501 166.631 40.9374 167.486 39.3826L168.785 39.9112C168.278 41.466 167.455 43.0208 166.299 44.5445C165.143 46.0837 163.655 47.3431 161.85 48.3226C160.029 49.3021 157.907 49.7841 155.453 49.7841C152.366 49.7841 149.658 49.1155 147.299 47.7784C144.94 46.4413 143.103 44.4512 141.789 41.8081C140.475 39.1649 139.81 35.9154 139.81 32.0907C139.81 28.0482 140.506 24.6433 141.884 21.8758C143.261 19.1083 145.177 17.0093 147.631 15.5634C150.085 14.1174 152.872 13.3867 155.991 13.3867V13.4178Z" fill="#00B4D8"/>
<path d="M186.043 3.40501V14.4129H194.752V15.75H186.043V42.3212C186.043 43.9226 186.344 45.0576 186.93 45.7261C187.516 46.3947 188.355 46.7212 189.447 46.7212C190.54 46.7212 191.442 46.3325 192.297 45.5551C193.152 44.7777 193.928 43.4717 194.609 41.6526L195.828 42.1812C195.147 44.3579 194.102 46.177 192.661 47.623C191.236 49.0689 189.226 49.7841 186.645 49.7841C185.109 49.7841 183.795 49.5975 182.734 49.2244C181.673 48.8512 180.755 48.3071 179.979 47.5919C178.981 46.5657 178.316 45.3374 177.968 43.9226C177.636 42.4922 177.461 40.6109 177.461 38.2476V15.75H171.476V14.4129H177.461V5.13082C179.092 5.08418 180.612 4.9287 182.021 4.66439C183.431 4.40007 184.761 3.98028 186.027 3.38947L186.043 3.40501Z" fill="#00B4D8"/>
<path d="M214.116 13.4178C218.106 13.4178 221.225 14.5994 223.489 16.9627C225.753 19.3259 226.893 23.0885 226.893 28.2504H203.982L203.919 26.9754H219.008C219.103 24.7987 218.961 22.7775 218.597 20.9273C218.233 19.0772 217.663 17.6001 216.871 16.4962C216.079 15.3768 215.05 14.8326 213.783 14.8326C212.058 14.8326 210.569 15.8277 209.303 17.8022C208.036 19.7768 207.244 23.0263 206.927 27.5196L207.197 27.9239C207.102 28.4991 207.054 29.121 207.022 29.7896C207.007 30.4582 206.991 31.1267 206.991 31.7953C206.991 34.8737 207.45 37.408 208.352 39.3981C209.255 41.4038 210.443 42.8653 211.883 43.7982C213.34 44.731 214.828 45.1975 216.364 45.1975C217.409 45.1975 218.47 45.042 219.563 44.731C220.655 44.4201 221.716 43.8448 222.761 42.9897C223.806 42.1501 224.756 40.9374 225.611 39.3826L226.909 39.9112C226.403 41.466 225.579 43.0208 224.423 44.5445C223.268 46.0837 221.779 47.3431 219.974 48.3226C218.153 49.3021 216.032 49.7841 213.578 49.7841C210.49 49.7841 207.783 49.1155 205.423 47.7784C203.064 46.4413 201.227 44.4512 199.913 41.8081C198.599 39.1649 197.934 35.9154 197.934 32.0907C197.934 28.0482 198.631 24.6433 200.008 21.8758C201.386 19.1083 203.302 17.0093 205.756 15.5634C208.21 14.1174 210.997 13.3867 214.116 13.3867V13.4178Z" fill="#00B4D8"/>
<path d="M253.605 13.4178C255.014 13.4178 256.17 13.7132 257.104 14.2884C258.038 14.8637 258.719 15.5945 259.178 16.4962C259.637 17.398 259.859 18.3153 259.859 19.2948C259.859 20.7563 259.415 21.9846 258.529 22.9641C257.642 23.9436 256.486 24.4256 255.03 24.4256C253.668 24.4256 252.56 24.068 251.705 23.3528C250.85 22.6376 250.406 21.6581 250.406 20.4143C250.406 19.3104 250.691 18.362 251.261 17.6157C251.831 16.8538 252.48 16.263 253.193 15.8121C252.686 15.5478 252.132 15.4545 251.499 15.5478C250.406 15.6411 249.409 16.0143 248.506 16.6828C247.604 17.3514 246.828 18.1754 246.195 19.1549C245.561 20.1344 245.07 21.1761 244.738 22.2956C244.405 23.415 244.231 24.4723 244.231 25.4984V41.9791C244.231 44.1558 244.801 45.6173 245.925 46.348C247.05 47.0788 248.712 47.4519 250.881 47.4519V48.8512C249.836 48.8046 248.332 48.7579 246.353 48.6802C244.374 48.6025 242.331 48.5869 240.194 48.5869C238.42 48.5869 236.663 48.618 234.921 48.6802C233.179 48.7424 231.865 48.8046 231.01 48.8512V47.4519C232.689 47.4519 233.876 47.1254 234.573 46.4569C235.269 45.7883 235.634 44.5134 235.634 42.6476V21.627C235.634 19.6213 235.301 18.1443 234.652 17.1803C233.987 16.2164 232.784 15.7499 231.01 15.7499V14.3506C232.467 14.4906 233.86 14.5528 235.222 14.5528C236.9 14.5528 238.499 14.475 240.019 14.3195C241.54 14.1641 242.933 13.9308 244.2 13.6199V20.5542C244.738 19.3104 245.45 18.1598 246.337 17.0871C247.224 16.0143 248.285 15.1436 249.535 14.4439C250.786 13.7443 252.132 13.4022 253.573 13.4022L253.605 13.4178Z" fill="#00B4D8"/>
<path d="M268.567 0.668579C269.612 0.668579 270.499 0.886248 271.259 1.30604C272.003 1.72583 272.636 2.27 273.127 2.93856C273.618 3.65376 273.982 4.47779 274.188 5.41066C274.394 6.34353 274.489 7.26085 274.489 8.14707C274.489 10.3238 273.903 12.3605 272.747 14.2263C271.591 16.092 269.818 17.5846 267.411 18.704L266.794 17.5069C268.108 16.9316 269.248 16.0765 270.23 14.9415C271.211 13.8065 271.766 12.6093 271.892 11.3655C272.066 10.5725 272.066 9.81069 271.892 9.09549C270.99 9.98172 269.802 10.4326 268.361 10.4326C266.921 10.4326 265.781 10.0128 264.831 9.15768C263.881 8.3181 263.406 7.10537 263.406 5.55059C263.406 4.12019 263.896 2.95411 264.862 2.05233C265.844 1.13501 267.063 0.684127 268.567 0.684127V0.668579Z" fill="#00B4D8"/>
<path d="M291.415 13.4178C293.315 13.4178 294.946 13.6821 296.308 14.2263C297.669 14.7549 298.667 15.2213 299.3 15.6256C300.836 16.745 301.77 16.0298 302.087 13.4955H303.575C303.48 14.786 303.417 16.3097 303.369 18.0666C303.322 19.8235 303.306 22.1712 303.306 25.1097H301.818C301.596 23.4617 301.153 21.8602 300.519 20.3055C299.886 18.7507 298.952 17.4447 297.733 16.403C296.513 15.3613 294.898 14.8326 292.903 14.8326C291.494 14.8326 290.338 15.2369 289.404 16.0298C288.47 16.8228 288.011 17.9733 288.011 19.4348C288.011 20.7719 288.422 21.938 289.23 22.933C290.053 23.9281 291.098 24.8765 292.397 25.7316C293.695 26.6023 295.041 27.5507 296.434 28.5613C298.065 29.6341 299.522 30.7069 300.788 31.7953C302.055 32.8836 303.084 34.0808 303.844 35.4024C304.62 36.7084 305 38.2632 305 40.0356C305 42.0879 304.414 43.8293 303.274 45.2752C302.118 46.7212 300.598 47.8406 298.714 48.618C296.83 49.3954 294.756 49.7841 292.492 49.7841C291.272 49.7841 290.164 49.6753 289.167 49.4576C288.169 49.2399 287.282 48.9445 286.522 48.5869C285.937 48.276 285.398 47.9806 284.923 47.7162C284.448 47.4519 283.957 47.2187 283.467 47.0477C283.007 46.83 282.612 46.9078 282.279 47.312C281.947 47.7162 281.677 48.3848 281.503 49.3177H280.015C280.11 47.8873 280.173 46.1615 280.221 44.1092C280.268 42.0568 280.284 39.3515 280.284 35.9621H281.772C282.089 38.4031 282.58 40.5643 283.229 42.3989C283.878 44.2491 284.844 45.695 286.111 46.7367C287.377 47.7784 289.008 48.3071 291.003 48.3071C291.858 48.3071 292.697 48.136 293.489 47.7784C294.281 47.4208 294.946 46.8611 295.468 46.1148C295.991 45.353 296.244 44.3424 296.244 43.0519C296.244 41.0929 295.563 39.4759 294.202 38.1854C292.84 36.895 291.146 35.5112 289.103 34.0497C287.567 32.9458 286.127 31.8419 284.781 30.7847C283.451 29.7119 282.358 28.5147 281.519 27.1776C280.68 25.8405 280.268 24.2546 280.268 22.4355C280.268 20.4298 280.791 18.7818 281.836 17.4602C282.881 16.1542 284.242 15.1436 285.952 14.4595C287.662 13.7754 289.483 13.4178 291.431 13.4178H291.415Z" fill="#00B4D8"/>
<path d="M121.173 71.8153V77.8945C121.173 85.373 117.5 89.4465 110.027 89.4465H106.496V107H99.0225V60.2633H110.043C117.516 60.2633 121.189 64.3368 121.189 71.8153H121.173ZM106.48 82.761H110.011C112.386 82.761 113.684 81.6882 113.684 78.361V71.3489C113.684 68.0061 112.386 66.9489 110.011 66.9489H106.48V82.7765V82.761Z" fill="#00B4D8"/>
<path d="M145.905 60.2788V66.9488H138.084V107H130.61V66.9488H122.789V60.2788H145.905Z" fill="#00B4D8"/>
<path d="M166.916 79.9624V86.6324H156.656V100.314H169.576V106.984H149.183V60.2477H169.576V66.9178H156.656V79.9313H166.916V79.9624Z" fill="#00B4D8"/>
<path d="M74.9556 9.5619C67.3397 3.1873 55.1638 0 38.4595 0H3.24586C2.47002 0 1.77335 0.279861 1.21918 0.715199C5.24088 28.2504 18.9052 37.0193 36.6228 39.6936V25.8249L58.7896 40.2222L36.6228 54.6194V42.1035C2.75502 47.3431 0.142501 67.8351 0 90.566V103.673C0 105.43 1.45668 106.86 3.24586 106.86H21.0427C22.8319 106.86 24.2885 105.43 24.2885 103.673V80.2422C24.2885 78.4853 25.7452 77.0549 27.5344 77.0549H38.7603C54.8471 77.0549 66.8014 73.992 74.6389 67.8817C82.4765 61.7714 86.3874 52.1162 86.3874 38.9162C86.3874 25.7161 82.5715 15.9365 74.9398 9.5619H74.9556Z" fill="#00B4D8"/>
<path d="M61 40.9118L35.7586 58.1729L35.7586 23.6507L61 40.9118Z" fill="white"/>
</g>
<defs>
<clipPath id="clip0_3742_448">
<rect width="305" height="107" fill="white"/>
</clipPath>
</defs>
</svg>
